# xmcd
#
# Track frame offsets:
#	182
#	12565
#	23152
#	39495
#	58210
#	71802
#	85982
#	107047
#	121495
#	137867
#	159247
#	180665
#
# Disc length: 2956
#
# Revision: 3
# Processed by: cddbd v1.5.1PL0 Copyright (c) Steve Scherf et al.
# Submitted via: EasyCD2 v3.00 - Copyright (c) 1997 Greg Leichner
# Normalized: r1:TSWAP
#
DISCID=a60b8a0c
DTITLE=Soul Music Collection - 7. - Dal Soul Al Funk
DYEAR=1900
DGENRE=
TTITLE0=The Bar-Kays - Shake Your Rump To The Funk
TTITLE1=Sly and The Family Stone - Everyday People
TTITLE2=The Commodores - Three Times A Lady
TTITLE3=James Brown - Get On The Good Foot
TTITLE4=The O'Jays - Love Train
TTITLE5=Jow Tex - Hold What You've Got
TTITLE6=Sly and The Family Stone - Thank You (Falettinme Be Mice Elf Again)
TTITLE7=Clarence Carter - Patches
TTITLE8=James Brown - Make It Funky (Part 1)
TTITLE9=David Porter - I'm Afraid The Masquerade Is Over
TTITLE10=The Brothers Johnson - I'll Be Good To You
TTITLE11=Parliament - Deep
EXTD=by David K. (Opatija City) - Croatia
EXTT0=
EXTT1=
EXTT2=
EXTT3=
EXTT4=
EXTT5=
EXTT6=
EXTT7=
EXTT8=
EXTT9=
EXTT10=
EXTT11=
PLAYORDER=
